<?xml version="1.0" encoding="UTF-8"?>
<svg version="1.1" xmlns="http://www.w3.org/2000/svg" width="217" height="209">
<path d="M0 0 C0.98742187 0.42667969 1.97484375 0.85335937 2.9921875 1.29296875 C9.71867551 4.38943986 9.71867551 4.38943986 10.89453125 6.94140625 C11 9 11 9 8.9375 12.375 C7.1215756 15.32201408 7.1215756 15.32201408 7.4375 18.8125 C8.31972445 20.61223787 9.21567138 22.40584107 10.15625 24.17578125 C13.53711271 30.63858892 15.492113 36.86512005 17 44 C17.66386719 44.10957031 18.32773438 44.21914062 19.01171875 44.33203125 C19.89472656 44.49058594 20.77773437 44.64914063 21.6875 44.8125 C22.55761719 44.96332031 23.42773438 45.11414063 24.32421875 45.26953125 C27.43589406 46.1189959 29.44632006 47.00956997 32 49 C32.63110352 51.86328125 32.63110352 51.86328125 32.62890625 55.3125 C32.63083984 56.55257812 32.63277344 57.79265625 32.63476562 59.0703125 C32.61091797 60.36710937 32.58707031 61.66390625 32.5625 63 C32.57345703 64.29679687 32.58441406 65.59359375 32.59570312 66.9296875 C32.52123043 76.48205249 32.52123043 76.48205249 30.1394043 78.84887695 C27.51441439 80.2612731 25.19132652 80.73229471 22.25 81.1875 C21.26515625 81.34605469 20.2803125 81.50460938 19.265625 81.66796875 C18.51796875 81.77753906 17.7703125 81.88710937 17 82 C16.86464844 82.69222656 16.72929687 83.38445312 16.58984375 84.09765625 C15.34023522 89.77701476 13.78072621 94.58559583 10.97924805 99.65283203 C7.56658901 105.6073817 7.56658901 105.6073817 7.91796875 112.2578125 C9.55221129 115.19432776 9.55221129 115.19432776 11.5390625 117.73046875 C13 120 13 120 12.90234375 122.06640625 C9.55277606 129.2440513 0.40346205 139.08032483 -7 142 C-10.92079564 141.82953062 -12.81057476 141.13143792 -16.0625 138.875 C-18.7459208 136.74180167 -18.7459208 136.74180167 -21.30078125 137.203125 C-24.43780035 138.12924931 -27.19221815 139.42662371 -30.125 140.875 C-35.96935291 143.64723582 -41.7035206 145.56152575 -48 147 C-48.66 149.97 -49.32 152.94 -50 156 C-68.66862952 155.34496037 -84.5326928 143.6190073 -97.15625 130.8125 C-110 116.98076923 -110 116.98076923 -110 111 C-106.75553461 111.61284346 -104.76348171 112.73173827 -102.125 114.6875 C-87.15891893 124.97978831 -69.81185515 127.41225015 -52.0859375 124.31640625 C-48.94033508 123.39415542 -46.00586817 122.30458768 -43 121 C-42.00097656 120.59910156 -41.00195312 120.19820312 -39.97265625 119.78515625 C-24.01398348 112.69925907 -13.22842237 99.04734706 -7 83 C-1.96978488 68.16086541 -2.94600354 50.17578694 -9.39453125 36.01171875 C-18.35594084 19.2008993 -30.61831572 8.56861629 -48.91796875 2.8125 C-53.88845237 1.50215704 -58.90965347 0.68593322 -64 0 C-64 -1.32 -64 -2.64 -64 -4 C-62.14703165 -4.48377991 -60.29255559 -4.96178636 -58.4375 -5.4375 C-56.88869141 -5.83775391 -56.88869141 -5.83775391 -55.30859375 -6.24609375 C-36.39204788 -10.55647551 -17.58304376 -7.78152981 0 0 Z " fill="#FDDE5C" transform="translate(175,45)"/>
<path d="M0 0 C1.30582031 -0.03738281 2.61164063 -0.07476562 3.95703125 -0.11328125 C5.20613281 -0.12488281 6.45523438 -0.13648438 7.7421875 -0.1484375 C9.46864502 -0.1781665 9.46864502 -0.1781665 11.22998047 -0.20849609 C14.125 0.375 14.125 0.375 15.97827148 2.74047852 C17.1428124 5.41592263 17.8148204 7.81627154 18.3125 10.6875 C18.47105469 11.57050781 18.62960938 12.45351563 18.79296875 13.36328125 C18.95732422 14.35908203 18.95732422 14.35908203 19.125 15.375 C15.53186936 16.41560796 11.94510906 17.42098855 8.3203125 18.34765625 C-6.88036542 22.3364602 -20.02292664 28.97101831 -31.875 39.375 C-33.1125 40.32826172 -33.1125 40.32826172 -34.375 41.30078125 C-51.23620922 55.29031577 -61.17841421 77.92467667 -63.67871094 99.19238281 C-65.80563242 122.84247989 -61.83738329 148.42129749 -46.4375 167.375 C-45.921875 168.035 -45.40625 168.695 -44.875 169.375 C-46.11762452 173.10287356 -47.32560134 173.61412389 -50.625 175.625 C-51.48609375 176.16640625 -52.3471875 176.7078125 -53.234375 177.265625 C-56.4675619 178.62394612 -57.61706822 178.64614389 -60.875 177.375 C-63.0019896 175.72035668 -64.88643888 174.10984606 -66.8125 172.25 C-67.33739014 171.75153564 -67.86228027 171.25307129 -68.40307617 170.73950195 C-69.90677902 169.29739376 -71.39268296 167.83903617 -72.875 166.375 C-73.58398438 165.69050781 -74.29296875 165.00601563 -75.0234375 164.30078125 C-77.49748986 161.71638383 -78.83110222 160.06273195 -79.0625 156.4375 C-77.875 153.375 -77.875 153.375 -76.42578125 151.75 C-74.56277112 149.57257758 -73.5747465 148.17833226 -72.875 145.375 C-74.15058213 141.36537447 -75.92351043 137.89931637 -77.92578125 134.21484375 C-79.7739529 130.78768506 -80.65581636 127.49798635 -81.5 123.6875 C-82.23887484 120.75703718 -82.23887484 120.75703718 -83.875 118.375 C-88.08152527 116.21073479 -92.25958129 115.28263464 -96.875 114.375 C-97.875 113.375 -97.875 113.375 -97.98852539 110.59936523 C-97.98328857 109.38966064 -97.97805176 108.17995605 -97.97265625 106.93359375 C-97.96943359 105.62841797 -97.96621094 104.32324219 -97.96289062 102.97851562 C-97.95453401 101.5898431 -97.94606905 100.20117123 -97.9375 98.8125 C-97.93248666 97.41992344 -97.92792347 96.02734519 -97.92382812 94.63476562 C-97.91199434 91.2148013 -97.8955088 87.79492156 -97.875 84.375 C-95.75107494 83.7049166 -93.62582476 83.03903203 -91.5 82.375 C-90.31664062 82.00375 -89.13328125 81.6325 -87.9140625 81.25 C-84.875 80.375 -84.875 80.375 -82.875 80.375 C-82.813125 79.4675 -82.75125 78.56 -82.6875 77.625 C-81.6549052 70.35258235 -78.20445378 63.37535571 -74.1875 57.3125 C-73.07543791 55.48675562 -73.07543791 55.48675562 -72.875 53.375 C-74.12675932 50.3064511 -75.65945855 47.7288148 -77.51953125 44.98828125 C-78.875 42.375 -78.875 42.375 -78.87109375 39.890625 C-77.53893176 36.52626296 -75.59950752 34.44440962 -73.125 31.8125 C-72.26390625 30.88308594 -71.4028125 29.95367187 -70.515625 28.99609375 C-63.84519374 22.375 -63.84519374 22.375 -60.875 22.375 C-60.875 21.715 -60.875 21.055 -60.875 20.375 C-59.1875 19.6875 -59.1875 19.6875 -56.875 19.375 C-54.18501921 20.75447733 -51.80737507 22.42118288 -49.3125 24.125 C-47.03575545 25.59933339 -47.03575545 25.59933339 -44.95043945 25.05053711 C-40.83017982 23.70942919 -36.92202633 21.78432654 -32.98242188 19.99023438 C-32.30115234 19.68537109 -31.61988281 19.38050781 -30.91796875 19.06640625 C-30.24443359 18.76484619 -29.57089844 18.46328613 -28.87695312 18.15258789 C-26.875 17.375 -26.875 17.375 -23.04296875 16.59375 C-19.57417786 15.65342363 -19.57417786 15.65342363 -18.1328125 12.15234375 C-17.72628528 10.88128624 -17.34927886 9.60046578 -17 8.3125 C-16.60835001 7.02946481 -16.2151978 5.7468869 -15.8203125 4.46484375 C-15.35238281 2.93537109 -15.35238281 2.93537109 -14.875 1.375 C-12.08893373 -1.41106627 -3.74978656 0.04047856 0 0 Z " fill="#535353" transform="translate(107.875,8.625)"/>
<path d="M0 0 C0.69931641 0.00193359 1.39863281 0.00386719 2.11914062 0.00585938 C6.85217337 0.04555862 11.39812624 0.34760437 16.0625 1.125 C16.0625 1.455 16.0625 1.785 16.0625 2.125 C14.98871094 2.18558594 13.91492188 2.24617188 12.80859375 2.30859375 C11.37238685 2.39307651 9.93618942 2.47772054 8.5 2.5625 C7.79552734 2.60181641 7.09105469 2.64113281 6.36523438 2.68164062 C1.8826459 2.95018279 -2.50043497 3.43116197 -6.9375 4.125 C-7.2675 5.445 -7.5975 6.765 -7.9375 8.125 C-6.57625 8.24875 -6.57625 8.24875 -5.1875 8.375 C-1.47136595 9.2325694 -0.40454667 10.31767103 2.0625 13.125 C3.0525 13.785 4.0425 14.445 5.0625 15.125 C5.0625 15.785 5.0625 16.445 5.0625 17.125 C4.38316406 16.8465625 3.70382813 16.568125 3.00390625 16.28125 C-6.84109094 12.41123782 -16.41866818 9.43740546 -26.9375 8.125 C-26.9375 6.805 -26.9375 5.485 -26.9375 4.125 C-25.08453165 3.64122009 -23.23005559 3.16321364 -21.375 2.6875 C-19.82619141 2.28724609 -19.82619141 2.28724609 -18.24609375 1.87890625 C-12.14711238 0.48917378 -6.24417361 -0.04190721 0 0 Z " fill="#F7DC74" transform="translate(137.9375,36.875)"/>
<path d="M0 0 C2.9517885 3.46071755 5.28901641 6.76756692 7 11 C6.08049269 18.64723579 -3.48871874 26.15916327 -9 31 C-11.68827305 32.61194361 -12.68240506 33.01380848 -15.875 32.875 C-19 32 -19 32 -22.0625 29.875 C-24.7459208 27.74180167 -24.7459208 27.74180167 -27.30078125 28.203125 C-30.43780035 29.12924931 -33.19221815 30.42662371 -36.125 31.875 C-41.96935291 34.64723582 -47.7035206 36.56152575 -54 38 C-54.33 39.98 -54.66 41.96 -55 44 C-55.33 44 -55.66 44 -56 44 C-56 41.69 -56 39.38 -56 37 C-55.34 37 -54.68 37 -54 37 C-54 36.34 -54 35.68 -54 35 C-50.09971775 32.39981184 -46.52565431 32.84914486 -42 33 C-42 32.34 -42 31.68 -42 31 C-41.34 30.67 -40.68 30.34 -40 30 C-40.33 29.34 -40.66 28.68 -41 28 C-37.37 27.67 -33.74 27.34 -30 27 C-30 26.34 -30 25.68 -30 25 C-28.02 25 -26.04 25 -24 25 C-24 25.66 -24 26.32 -24 27 C-22.6806062 27.38482319 -21.34084736 27.69830934 -20 28 C-19.3709375 28.15339844 -18.741875 28.30679688 -18.09375 28.46484375 C-15.97671903 28.87956064 -14.15465074 29.15135976 -12 29 C-9.65057354 26.81327138 -9.65057354 26.81327138 -8 24 C-4.5862069 21 -4.5862069 21 -1 21 C-0.71125 20.38125 -0.4225 19.7625 -0.125 19.125 C1 17 1 17 3 15 C3.0992716 13.04330097 3.0992716 13.04330097 2.75 10.9375 C2.66234375 10.22464844 2.5746875 9.51179687 2.484375 8.77734375 C2.32453125 8.19082031 2.1646875 7.60429687 2 7 C1.34 6.67 0.68 6.34 0 6 C0 4.02 0 2.04 0 0 Z " fill="#F1DD7E" transform="translate(181,154)"/>
<path d="M0 0 C3.24446539 0.61284346 5.23651829 1.73173827 7.875 3.6875 C16.61520236 9.6630914 26.50317241 13.59719816 37 15 C37 15.33 37 15.66 37 16 C30.59338676 15.53716482 24.44279985 14.80831759 18.19140625 13.3046875 C15.82346266 12.9754547 14.25759909 13.26975155 12 14 C13.9076495 17.90345602 13.9076495 17.90345602 17.5625 20 C20 21 20 21 21.0625 23.5 C21.5265625 24.7375 21.5265625 24.7375 22 26 C24.00016466 27.20882096 24.00016466 27.20882096 26 28 C26.33 28.66 26.66 29.32 27 30 C28.64363134 30.72159424 30.31050386 31.39351421 32 32 C31.67 32.99 31.34 33.98 31 35 C20.85485727 28.04062172 12.70372794 20.64760512 5.5 10.6875 C5.0661499 10.08856934 4.6322998 9.48963867 4.18530273 8.87255859 C2.17225651 6.00024098 0.48679753 3.52058928 0 0 Z " fill="#F2DA72" transform="translate(65,156)"/>
<path d="M0 0 C2.2941138 0.61695489 4.58499678 1.24312044 6.875 1.875 C7.52597656 2.04902344 8.17695313 2.22304687 8.84765625 2.40234375 C13.7734375 3.7734375 13.7734375 3.7734375 16 6 C16.48893343 10.62761116 16.37040694 15.28702683 16.375 19.9375 C16.39949219 21.23880859 16.42398438 22.54011719 16.44921875 23.88085938 C16.45501953 25.74774414 16.45501953 25.74774414 16.4609375 27.65234375 C16.46915527 28.79695068 16.47737305 29.94155762 16.48583984 31.12084961 C16 34 16 34 14.14599609 35.85107422 C11.51792126 37.25809585 9.1916597 37.73224314 6.25 38.1875 C5.26515625 38.34605469 4.2803125 38.50460938 3.265625 38.66796875 C2.51796875 38.77753906 1.7703125 38.88710937 1 39 C0.85304687 39.71542969 0.70609375 40.43085938 0.5546875 41.16796875 C-1.28470929 49.33954186 -4.27014881 56.51615619 -8 64 C-8.93423645 60.98968256 -9.04449911 60.13349732 -8 57 C-7.34 57 -6.68 57 -6 57 C-6 55.02 -6 53.04 -6 51 C-5.34 51 -4.68 51 -4 51 C-4.12375 49.4840625 -4.12375 49.4840625 -4.25 47.9375 C-4.02337458 44.36814971 -3.69659426 41.60410906 -1.8203125 38.51171875 C2.42264214 34.98806328 8.76819867 34.82352428 14 34 C14 25.42 14 16.84 14 8 C13.34 8 12.68 8 12 8 C12 7.01 12 6.02 12 5 C10.02 5 8.04 5 6 5 C6 4.34 6 3.68 6 3 C3.03 2.505 3.03 2.505 0 2 C0 1.34 0 0.68 0 0 Z " fill="#EFDC8A" transform="translate(191,88)"/>
<path d="M0 0 C3.92851296 1.13720112 7.61229034 2.64965116 11.3125 4.375 C12.17488281 4.77460937 13.03726563 5.17421875 13.92578125 5.5859375 C16 7 16 7 16.921875 8.953125 C17 11 17 11 14.9375 14.375 C13.1215756 17.32201408 13.1215756 17.32201408 13.4375 20.8125 C15.20672595 24.42172094 17.00122699 28.01721057 18.8203125 31.6015625 C22.23113456 38.53614776 22.23113456 38.53614776 21.625 42.375 C21.41875 42.91125 21.2125 43.4475 21 44 C20.5875 42.96875 20.175 41.9375 19.75 40.875 C18.62394229 38.2080212 17.48350681 36.24739564 15.8125 33.8125 C14 31 14 31 14 27 C13.01 26.67 12.02 26.34 11 26 C10.74833008 19.70825188 11.12978204 14.74043592 14 9 C13.01 9 12.02 9 11 9 C10.67 10.32 10.34 11.64 10 13 C8.5393715 10.35261084 8 9.10551666 8 6 C7.05125 5.566875 6.1025 5.13375 5.125 4.6875 C2 3 2 3 0 0 Z " fill="#F2DE85" transform="translate(169,43)"/>
<path d="M0 0 C2.9517885 3.46071755 5.28901641 6.76756692 7 11 C6.08049269 18.64723579 -3.48871874 26.15916327 -9 31 C-12.67848563 33.25933858 -14.80271417 32.9539286 -19 32 C-19 31.67 -19 31.34 -19 31 C-16.69 31 -14.38 31 -12 31 C-11.79375 30.278125 -11.5875 29.55625 -11.375 28.8125 C-9.51178872 25.00138601 -7.45127759 23.46519828 -4 21 C-3.01 21 -2.02 21 -1 21 C-0.71125 20.38125 -0.4225 19.7625 -0.125 19.125 C1 17 1 17 3 15 C3.0992716 13.04330097 3.0992716 13.04330097 2.75 10.9375 C2.66234375 10.22464844 2.5746875 9.51179687 2.484375 8.77734375 C2.32453125 8.19082031 2.1646875 7.60429687 2 7 C1.34 6.67 0.68 6.34 0 6 C0 4.02 0 2.04 0 0 Z " fill="#F1DE8B" transform="translate(181,154)"/>
<path d="M0 0 C1.34931506 4.04794519 0.54350753 6.07107174 -1 10 C-3.0625 11.625 -3.0625 11.625 -6 13 C-7.52340404 13.8705166 -9.04403836 14.74589063 -10.5625 15.625 C-13.36764178 17.22932719 -15.82754639 18.35256049 -19 19 C-16.13426373 16.04470947 -13.19937479 13.2922467 -10.0625 10.625 C-6.28784211 7.36604489 -3.15131603 3.86036214 0 0 Z " fill="#F7DB6F" transform="translate(160,144)"/>
<path d="M0 0 C-3.75 2 -3.75 2 -6 2 C-4.98842741 3.60506456 -4.98842741 3.60506456 -3 5 C-1.00789876 5.28917599 0.98705489 5.57242368 2.9921875 5.75 C5.54026033 6.06726977 7.68431084 6.91452071 10 8 C10 8.66 10 9.32 10 10 C9.12601563 9.81824219 9.12601563 9.81824219 8.234375 9.6328125 C1.51427184 8.25920651 -5.22907805 7.09358533 -12 6 C-12 4.68 -12 3.36 -12 2 C-7.8803623 0.70756464 -4.33168317 -0.26252625 0 0 Z " fill="#F0E190" transform="translate(123,39)"/>
<path d="M0 0 C3.3 0.33 6.6 0.66 10 1 C10.33 1.99 10.66 2.98 11 4 C12.81296615 4.62092718 12.81296615 4.62092718 15 5 C15.7425 5.350625 16.485 5.70125 17.25 6.0625 C20.97143987 7.33117268 24.07743488 7.13296831 28 7 C28 7.99 28 8.98 28 10 C21.85921104 9.78453372 16.8406531 8.38955714 11.1875 6.125 C10.54159912 5.86831543 9.89569824 5.61163086 9.23022461 5.34716797 C5.66886274 3.87142198 3.13366093 2.3502457 0 0 Z " fill="#ECDD8A" transform="translate(97,191)"/>
<path d="M0 0 C0.66 0 1.32 0 2 0 C2.14677671 4.29129925 2.23456586 8.58194224 2.3125 12.875 C2.35439453 14.07898438 2.39628906 15.28296875 2.43945312 16.5234375 C2.54909899 24.59337342 1.37292003 30.17094833 -3 37 C-4.14767015 33.55698954 -3.84515889 33.06439134 -2.625 29.8125 C0.4407319 20.27933369 0.05525631 9.92403383 0 0 Z " fill="#F5E28F" transform="translate(171,96)"/>
<path d="M0 0 C2.92267484 2.58303679 4.63472255 5.56909404 6.5625 8.9375 C7.16191406 9.97777344 7.76132812 11.01804688 8.37890625 12.08984375 C9.64934534 14.37051152 10.8624582 16.65134405 12 19 C8.375 22 8.375 22 5 22 C5.350625 21.2575 5.70125 20.515 6.0625 19.75 C7.10290388 16.69814861 7.04894047 15.95014506 6 13 C4.51606099 10.66515968 2.90492191 8.45523387 1.27734375 6.21875 C0 4 0 4 0 0 Z " fill="#454544" transform="translate(51,161)"/>
<path d="M0 0 C7.34439364 3.09841607 12.72735794 10.95123249 16 18 C16.83136111 20.97665501 17.47526021 23.95512834 18 27 C15.80454082 24.24466727 14.25851839 21.58025377 12.8125 18.375 C10.39495179 13.39986267 7.31623224 9.35375274 3.76953125 5.12890625 C2 3 2 3 0 0 Z " fill="#F2DC89" transform="translate(151,60)"/>
<path d="M0 0 C5.68502535 1.64566523 10.76681636 4.29032784 16 7 C15.34 8.32 14.68 9.64 14 11 C14 10.34 14 9.68 14 9 C13.01 9 12.02 9 11 9 C10.67 10.32 10.34 11.64 10 13 C8.5393715 10.35261084 8 9.10551666 8 6 C7.05125 5.566875 6.1025 5.13375 5.125 4.6875 C2 3 2 3 0 0 Z " fill="#F6DE71" transform="translate(169,43)"/>
<path d="M0 0 C2.24889976 3.37334963 2.19873463 4.27559464 2.01953125 8.18359375 C1.99052734 9.19357422 1.96152344 10.20355469 1.93164062 11.24414062 C1.85234156 13.36961568 1.76123082 15.49468355 1.65820312 17.61914062 C1.31203044 23.76293955 1.31203044 23.76293955 4.51171875 28.72265625 C5.33285156 29.14417969 6.15398438 29.56570312 7 30 C1.125 29.125 1.125 29.125 0 28 C-0.08767112 25.92737924 -0.10695873 23.85179706 -0.09765625 21.77734375 C-0.09443359 20.51728516 -0.09121094 19.25722656 -0.08789062 17.95898438 C-0.07953403 16.61848891 -0.07106907 15.27799412 -0.0625 13.9375 C-0.0574866 12.59310058 -0.05292342 11.2486994 -0.04882812 9.90429688 C-0.03699488 6.60282059 -0.02050971 3.30143197 0 0 Z " fill="#454545" transform="translate(10,94)"/>
<path d="M0 0 C1.11117187 0.48210937 2.22234375 0.96421875 3.3671875 1.4609375 C11.1920878 4.80215322 18.51739573 7.78819939 27 9 C27 9.33 27 9.66 27 10 C20.4491015 9.54240047 14.3246158 8.7899856 8 7 C8 6.34 8 5.68 8 5 C6.8553125 4.814375 6.8553125 4.814375 5.6875 4.625 C3 4 3 4 0 2 C0 1.34 0 0.68 0 0 Z " fill="#EDD983" transform="translate(75,162)"/>
<path d="M0 0 C4.24822374 0.47202486 6.19989709 2.96655518 9 6 C8.01 6 7.02 6 6 6 C6.350625 6.598125 6.70125 7.19625 7.0625 7.8125 C8 10 8 10 7 13 C5.82786955 11.21190303 4.66244474 9.41940875 3.5 7.625 C2.8503125 6.62726563 2.200625 5.62953125 1.53125 4.6015625 C0 2 0 2 0 0 Z " fill="#E8D27F" transform="translate(65,156)"/>
<path d="M0 0 C0.99 0.33 1.98 0.66 3 1 C3.33 2.98 3.66 4.96 4 7 C0.01939223 8.17076699 -3.91621717 9.25749403 -8 10 C-7 7 -7 7 -5.15234375 6.05078125 C-4.05599609 5.68533203 -4.05599609 5.68533203 -2.9375 5.3125 C-2.20402344 5.06113281 -1.47054687 4.80976563 -0.71484375 4.55078125 C0.13400391 4.27814453 0.13400391 4.27814453 1 4 C0.67 2.68 0.34 1.36 0 0 Z " fill="#494448" transform="translate(123,17)"/>
<path d="M0 0 C2.9517885 3.46071755 5.28901641 6.76756692 7 11 C6.6875 13.375 6.6875 13.375 6 15 C5.34 15 4.68 15 4 15 C3.87882813 14.43410156 3.75765625 13.86820313 3.6328125 13.28515625 C3.38144531 12.18494141 3.38144531 12.18494141 3.125 11.0625 C2.96257812 10.33160156 2.80015625 9.60070312 2.6328125 8.84765625 C2.17038477 6.79299706 2.17038477 6.79299706 0 6 C0 4.02 0 2.04 0 0 Z " fill="#EED38C" transform="translate(181,154)"/>
<path d="M0 0 C0 0.66 0 1.32 0 2 C-0.66 2 -1.32 2 -2 2 C-2.66 6.95 -3.32 11.9 -4 17 C-4.33 17 -4.66 17 -5 17 C-6.5688 6.2728 -6.5688 6.2728 -4 1 C-2 0 -2 0 0 0 Z " fill="#F6DC6C" transform="translate(185,143)"/>
<path d="M0 0 C0.33 0 0.66 0 1 0 C1.04254356 1.99954746 1.04080783 4.00041636 1 6 C0 7 0 7 -3.4375 7.1875 C-7 7 -7 7 -9 5 C-7.68 5 -6.36 5 -5 5 C-4.67 4.01 -4.34 3.02 -4 2 C-2.68 2 -1.36 2 0 2 C0 1.34 0 0.68 0 0 Z " fill="#F8DC68" transform="translate(124,192)"/>
<path d="M0 0 C4 0 4 0 6.0625 1.875 C6.701875 2.57625 7.34125 3.2775 8 4 C8.99 4.66 9.98 5.32 11 6 C11 6.66 11 7.32 11 8 C9.33333333 7.33333333 7.66666667 6.66666667 6 6 C4.63875 5.566875 4.63875 5.566875 3.25 5.125 C1 4 1 4 0.1875 1.875 C0.125625 1.25625 0.06375 0.6375 0 0 Z " fill="#F3DE75" transform="translate(132,46)"/>
<path d="M0 0 C0.66 0 1.32 0 2 0 C0.52278578 3.45201639 -1.43794001 5.64961936 -4.125 8.25 C-4.84945312 8.95640625 -5.57390625 9.6628125 -6.3203125 10.390625 C-6.87460938 10.92171875 -7.42890625 11.4528125 -8 12 C-8 9 -8 9 -7 6 C-6.01 6 -5.02 6 -4 6 C-3.71125 5.38125 -3.4225 4.7625 -3.125 4.125 C-2 2 -2 2 0 0 Z " fill="#F0E19B" transform="translate(184,169)"/>
<path d="M0 0 C0.33 0 0.66 0 1 0 C2.78739314 7.42455611 0.82260707 11.54521713 -3 18 C-4.32435978 14.02692066 -3.18129186 11.19025432 -2.0625 7.3125 C-1.76956055 6.2596582 -1.76956055 6.2596582 -1.47070312 5.18554688 C-0.98800864 3.45491056 -0.49499154 1.72715934 0 0 Z " fill="#F4DB84" transform="translate(171,115)"/>
<path d="M0 0 C0.66 0.33 1.32 0.66 2 1 C-1 3 -1 3 -4 3 C-4 4.32 -4 5.64 -4 7 C-5.32 7.33 -6.64 7.66 -8 8 C-8.33 6.68 -8.66 5.36 -9 4 C-7.54618103 3.30300448 -6.08677047 2.61766134 -4.625 1.9375 C-3.40683594 1.36322266 -3.40683594 1.36322266 -2.1640625 0.77734375 C-1.44992188 0.52082031 -0.73578125 0.26429688 0 0 Z " fill="#F5E182" transform="translate(132,166)"/>
<path d="M0 0 C0.33 2.31 0.66 4.62 1 7 C-2.36591866 5.55746343 -4.51047079 3.66735273 -7 1 C-1.125 0 -1.125 0 0 0 Z " fill="#F0DB73" transform="translate(150,53)"/>
<path d="M0 0 C3.3 0.33 6.6 0.66 10 1 C10.33 1.99 10.66 2.98 11 4 C6.00837213 3.52003578 4.14964417 3.11223313 0 0 Z " fill="#F3D87A" transform="translate(97,191)"/>
<path d="M0 0 C0.33 0.99 0.66 1.98 1 3 C-0.9375 6.1875 -0.9375 6.1875 -3 9 C-4.32 8.67 -5.64 8.34 -7 8 C-4.69 5.36 -2.38 2.72 0 0 Z " fill="#F5DF86" transform="translate(160,144)"/>
<path d="M0 0 C0.33 0.66 0.66 1.32 1 2 C0.00390625 4.1640625 0.00390625 4.1640625 -1.4375 6.625 C-1.91058594 7.44226563 -2.38367187 8.25953125 -2.87109375 9.1015625 C-3.24363281 9.72804688 -3.61617187 10.35453125 -4 11 C-5 8 -5 8 -3.6875 4.9375 C-2 2 -2 2 0 0 Z " fill="#474747" transform="translate(53,73)"/>
<path d="M0 0 C3.3 0 6.6 0 10 0 C10 0.66 10 1.32 10 2 C6.37 2.66 2.74 3.32 -1 4 C-0.67 2.68 -0.34 1.36 0 0 Z " fill="#FBD86A" transform="translate(94,171)"/>
<path d="M0 0 C0.33 0 0.66 0 1 0 C1 1.65 1 3.3 1 5 C0.34 5 -0.32 5 -1 5 C-1.33 6.65 -1.66 8.3 -2 10 C-2.99 10.33 -3.98 10.66 -5 11 C-3.55049545 7.2089881 -1.84827434 3.6125362 0 0 Z " fill="#F2DA86" transform="translate(166,133)"/>
<path d="M0 0 C1.32 0 2.64 0 4 0 C4 2.97 4 5.94 4 9 C1.18167487 7.59083743 0.97406539 5.92219617 0 3 C0 2.01 0 1.02 0 0 Z " fill="#F2D96D" transform="translate(71,162)"/>
<path d="M0 0 C2.96175123 0.61277612 4.38058783 1.25372522 7 3 C6.67 3.66 6.34 4.32 6 5 C4.35 4.67 2.7 4.34 1 4 C0.67 2.68 0.34 1.36 0 0 Z " fill="#E3D39A" transform="translate(65,156)"/>
<path d="M0 0 C0.66 0 1.32 0 2 0 C1.88590407 1.45922693 1.75834456 2.91740598 1.625 4.375 C1.55539063 5.18710938 1.48578125 5.99921875 1.4140625 6.8359375 C1 9 1 9 -1 11 C-1.0270043 9.54176788 -1.04639787 8.08339325 -1.0625 6.625 C-1.07410156 5.81289062 -1.08570313 5.00078125 -1.09765625 4.1640625 C-1 2 -1 2 0 0 Z " fill="#3F3F3F" transform="translate(42,107)"/>
<path d="M0 0 C0.66 0.33 1.32 0.66 2 1 C0.02 3.31 -1.96 5.62 -4 8 C-4.33 7.01 -4.66 6.02 -5 5 C-3.35 3.35 -1.7 1.7 0 0 Z " fill="#3D3D3D" transform="translate(69,51)"/>
<path d="M0 0 C1.98 0.495 1.98 0.495 4 1 C3.67 1.66 3.34 2.32 3 3 C3.99 3.33 4.98 3.66 6 4 C4.02 4 2.04 4 0 4 C0 2.68 0 1.36 0 0 Z " fill="#DDD09F" transform="translate(111,41)"/>
<path d="M0 0 C3.91211733 1.15585285 6.8745041 2.35534962 10 5 C3.47692308 4.50769231 3.47692308 4.50769231 1.0625 1.9375 C0.711875 1.298125 0.36125 0.65875 0 0 Z " fill="#EAD87D" transform="translate(169,43)"/>
</svg>
